<svg width="44" height="47" viewBox="0 0 44 47" fill="none" xmlns="http://www.w3.org/2000/svg">
<path d="M16.359 38.865C6.10256 41.9325 6.10256 33.7524 2 32.7299M30.718 45V37.0858C30.7949 36.1107 30.6627 35.1304 30.3303 34.2101C29.9978 33.2898 29.4727 32.4506 28.7897 31.7483C35.2308 31.0326 42 28.599 42 17.4333C41.9995 14.5781 40.8978 11.8324 38.9231 9.76448C39.8582 7.26651 39.7921 4.50543 38.7385 2.05479C38.7385 2.05479 36.318 1.33904 30.718 5.08141C26.0164 3.81109 21.0605 3.81109 16.359 5.08141C10.759 1.33904 8.33846 2.05479 8.33846 2.05479C7.28487 4.50543 7.21876 7.26651 8.15385 9.76448C6.16436 11.8477 5.06159 14.6182 5.07692 17.4946C5.07692 28.5786 11.8462 31.0121 18.2872 31.8097C17.6123 32.5049 17.0918 33.334 16.7596 34.2431C16.4274 35.1521 16.2909 36.1207 16.359 37.0858V45" stroke="white" stroke-width="4" stroke-linecap="round" stroke-linejoin="round"/>
</svg>
