<svg width="58" height="55" viewBox="0 0 58 55" fill="none" xmlns="http://www.w3.org/2000/svg">
<rect x="9" y="27" width="5" height="28" rx="2.5" fill="white"/>
<rect x="28.8783" y="0.295105" width="5" height="40.84" rx="2.5" transform="rotate(45 28.8783 0.295105)" fill="white"/>
<rect x="57.7089" y="29.1734" width="5" height="40.9043" rx="2.5" transform="rotate(135 57.7089 29.1734)" fill="white"/>
<rect x="1" y="32" width="5" height="13" rx="2.5" transform="rotate(-90 1 32)" fill="white"/>
<rect x="44" y="32" width="5" height="13" rx="2.5" transform="rotate(-90 44 32)" fill="white"/>
<rect x="44" y="27" width="5" height="28" rx="2.5" fill="white"/>
<rect x="9" y="55" width="5" height="40" rx="2.5" transform="rotate(-90 9 55)" fill="white"/>
<rect x="20" y="29" width="8" height="8" rx="2" fill="white"/>
<rect x="20" y="39" width="8" height="8" rx="2" fill="white"/>
<rect x="30" y="29" width="8" height="8" rx="2" fill="white"/>
<rect x="30" y="39" width="8" height="8" rx="2" fill="white"/>
</svg>
